<?xml version="1.0" encoding="utf-8"?>
<svg viewBox="22.564 75.542 478.146 326.009" width="478.146" height="326.009" xmlns="http://www.w3.org/2000/svg">
  <g id="__id104_ssbgenywyn" transform="matrix(10.866953, 0, 0, 10.866953, 0.829616, -22.260703)" style="fill: rgb(191, 0, 0);">
    <path d="M24 9c-10 0-18.54 6.22-22 15 3.46 8.78 12 15 22 15s18.54-6.22 22-15c-3.46-8.78-11.99-15-22-15zm0 25c-5.52 0-10-4.48-10-10s4.48-10 10-10 10 4.48 10 10-4.48 10-10 10zm0-16c-3.31 0-6 2.69-6 6s2.69 6 6 6 6-2.69 6-6-2.69-6-6-6z" style="fill: inherit; paint-order: fill;"/>
  </g>
</svg>